<?xml version="1.0" encoding="utf-8"?>
<!-- Generator: Adobe Illustrator 26.2.1, SVG Export Plug-In . SVG Version: 6.00 Build 0)  -->
<svg version="1.1" id="Слой_1" xmlns="http://www.w3.org/2000/svg" xmlns:xlink="http://www.w3.org/1999/xlink" x="0px" y="0px"
	 viewBox="0 0 595.28 841.89" enable-background="new 0 0 595.28 841.89" xml:space="preserve">
<g>
	<path fill="#010202" d="M587.3,396.13c-0.78-1.18-2.14-1.86-3.74-1.86H562.1c-2.89,0-5.85,2.18-6.86,5.06l-2.12,6.03
		c-0.32-0.06-0.66-0.09-1-0.09h-8.13l1.64-4.8c0.54-1.59,0.4-3.17-0.38-4.34c-0.78-1.18-2.14-1.85-3.73-1.85h-14.31
		c0.71,1.67,0.83,3.63,0.34,5.65h12.59l-8.1,23.76l10-12.76h8.7l1.64,12.76l8.34-23.76h21.47L568,441.09h-18.91h-9.43l-0.76-9.17
		l-6.89,9.17h-11.8h-8.65c-0.46,0.42-0.94,0.82-1.46,1.18l-6.47,4.47h15.2h11.8h7.65h9.43h18.91c2.9,0,5.87-2.2,6.87-5.09
		l14.18-41.17C588.22,398.89,588.08,397.31,587.3,396.13z"/>
	<polygon fill="#010202" points="485.52,430.09 492.09,410.92 487.09,410.92 480.46,430.09 	"/>
	<path fill="#010202" d="M522.54,396.13c-0.78-1.19-2.14-1.86-3.74-1.86h-40.93c0.72,1.67,0.83,3.63,0.34,5.65h39.21l-11.91,34.52
		l-9.62,6.65H462.3c-0.47,0.42-0.95,0.83-1.47,1.19l-6.46,4.46h40.14c1.32,0,2.71-0.46,3.93-1.31l9.62-6.65
		c1.37-0.95,2.43-2.31,2.94-3.78l11.91-34.52C523.45,398.9,523.32,397.31,522.54,396.13z"/>
	<polygon fill="#010202" points="340.43,430.09 347,410.92 342,410.92 335.37,430.09 	"/>
	<path fill="#010202" d="M241.45,396.13c-0.78-1.19-2.14-1.86-3.74-1.86h-42.86l3.59,4.73c0.22,0.28,0.37,0.61,0.53,0.93h37.35
		l-3.81,11h-23.35l-1.69,5h23.29l-3,8.8l-0.13,0.38H204.3l-1.69,5h23.29l-2.21,6.47l0,0l-1.54,4.52h-36.73
		c-0.47,0.42-0.96,0.81-1.49,1.18l-6.49,4.48h43.33c2.91,0,5.89-2.21,6.88-5.11l1.73-5.07h0l3.76-10.91c0-0.01,0.01-0.01,0.01-0.02
		l0.19-0.55l7.23-20.97l1.26-3.63C242.36,398.9,242.23,397.32,241.45,396.13z"/>
	<g>
		<polygon fill="#010202" points="154.32,430.07 159.32,430.07 165.94,410.9 160.88,410.9 		"/>
	</g>
	<path fill="#010202" d="M194.46,402.2l-5.05-6.65c-0.64-0.84-1.72-1.31-3.03-1.31h-37.15c0.91,1.61,1.11,3.6,0.61,5.66h34.04
		l5.04,6.64l-5.44,15.86l-4.15,12.03l-9.61,6.64h-36.3c-0.14,0.11-0.26,0.23-0.41,0.33l-7.54,5.21c0.33,0.07,0.68,0.11,1.06,0.11
		h1.03c0.03,0,0.05,0.01,0.08,0.01h40.7c1.32,0,2.71-0.46,3.93-1.31l9.62-6.65c1.37-0.95,2.43-2.31,2.94-3.78l0.23-0.66l0.03-0.02
		l4.07-11.88l5.28-15.32l-0.02-0.03l0.38-1.11C195.31,404.51,195.19,403.15,194.46,402.2z"/>
	<g>
		<polygon fill="#010202" points="108.94,430.09 115.51,410.92 110.51,410.92 103.89,430.09 		"/>
	</g>
	<path fill="#010202" d="M145.96,396.13c-0.78-1.19-2.14-1.86-3.74-1.86h-40.86c0.72,1.67,0.83,3.63,0.34,5.65h39.14l-11.91,34.52
		l-9.62,6.65H87.63l-0.35,1.01c-0.6,1.73-1.6,3.29-2.83,4.64h33.49c1.32,0,2.71-0.46,3.93-1.31l9.62-6.65
		c1.37-0.95,2.43-2.31,2.94-3.78l11.91-34.52C146.88,398.9,146.75,397.31,145.96,396.13z"/>
	<path fill="#010202" d="M377.45,396.13c-0.78-1.19-2.14-1.86-3.74-1.86h-41.15c0.72,1.67,0.83,3.63,0.34,5.65h39.43l-11.91,34.52
		l-9.62,6.65h-31.97l-0.35,1.01c-0.6,1.73-1.6,3.29-2.83,4.64h33.77c1.32,0,2.71-0.46,3.93-1.31l9.62-6.65
		c1.37-0.95,2.43-2.31,2.94-3.78l11.91-34.52C378.37,398.9,378.23,397.31,377.45,396.13z"/>
	<path fill="#010202" d="M96.69,396.13c-0.78-1.18-2.14-1.86-3.74-1.86H71.49c-2.07,0-4.26,1.13-5.69,2.96l-9.08,11.53l-1.42-10.81
		c-0.29-2.21-2.04-3.67-4.4-3.67H29.38c-2.9,0-5.88,2.2-6.87,5.09L8.33,440.53c-0.55,1.59-0.41,3.17,0.37,4.36
		c0.78,1.18,2.14,1.86,3.74,1.86h16.8h4.73h5.94h9.12h5.53h3.06h18.41c2.9,0,5.88-2.2,6.87-5.09l14.18-41.17
		C97.61,398.89,97.48,397.31,96.69,396.13z M77.4,441.09H58.99h-3.06l4.37-12.82l-9.9,12.82h-9.12l-1.69-12.35l-4.25,12.35h-4.73
		h-16.8L28,399.92h21.52l2.93,22.41l17.65-22.41h21.47L77.4,441.09z"/>
	<path fill="#010202" d="M327.9,396.13c-0.78-1.18-2.14-1.86-3.74-1.86H302.7c-2.07,0-4.26,1.13-5.69,2.96l-9.08,11.53l-1.42-10.81
		c-0.29-2.21-2.04-3.67-4.4-3.67h-21.52c-2.9,0-5.88,2.2-6.87,5.09l-14.18,41.17c-0.55,1.59-0.41,3.17,0.37,4.36
		c0.78,1.18,2.14,1.86,3.74,1.86h14.87h6.65h5.94h9.12h5.53h9.92h11.55c2.9,0,5.88-2.2,6.87-5.09l14.18-41.17
		C328.82,398.89,328.68,397.31,327.9,396.13z M308.6,441.09h-11.55h-9.92l4.37-12.82l-9.9,12.82h-9.12l-1.69-12.35l-4.25,12.35
		h-6.65h-14.87l14.18-41.17h21.52l2.93,22.41l17.65-22.41h21.47L308.6,441.09z"/>
	<g>
		<polygon fill="#010202" points="390.43,425.09 373.88,425.09 372.13,430.15 388.72,430.15 		"/>
		<path fill="#010202" d="M424.81,396.12c-0.78-1.18-2.14-1.85-3.73-1.85h-38.87c-0.03,0-0.06,0.01-0.08,0.01
			c0.71,1.67,0.82,3.63,0.33,5.65h37.24l-2.56,7.51l-1.2,3.49h-25.62l-1.75,5h25.64l-0.74,2.15l-0.01,0.02l0,0l-5.61,16.36
			l-9.62,6.65h-31.75c-0.46,0.42-0.94,0.82-1.46,1.18l-6.47,4.47h38.3c1.32,0,2.71-0.46,3.93-1.31l9.62-6.65
			c1.38-0.95,2.43-2.31,2.94-3.79l5.81-16.94l2.23-6.44c0.02-0.05,0.05-0.1,0.07-0.15l1.27-3.73l0,0l0,0l2.47-7.26
			C425.73,398.88,425.59,397.3,424.81,396.12z"/>
	</g>
	<path fill="#010202" d="M473.2,396.13c-0.78-1.18-2.14-1.86-3.74-1.86h-39.98c0.71,1.67,0.82,3.63,0.33,5.65h38.27l-4.27,12.44
		l-1.86,5.38h-21.52l2.37-6.82h-5.06l-6.57,19.17h5l2.55-7.29h21.46l-3.96,11.64l-9.62,6.65h-32.72c-0.46,0.41-0.94,0.82-1.45,1.18
		l-6.49,4.48h39.28c1.32,0,2.71-0.46,3.93-1.31l9.62-6.65c1.38-0.95,2.44-2.32,2.95-3.81l3.19-9.38l2.49-7.22
		c0.01-0.03,0.03-0.06,0.04-0.09l6.12-17.82C474.12,398.9,473.99,397.32,473.2,396.13z"/>
</g>
</svg>
